<!-- icon666.com - MILLIONS vector ICONS FREE --><svg enable-background="new 0 0 32 32" viewBox="0 0 32 32" xmlns="http://www.w3.org/2000/svg"><g id="_x34_1_Bell"><path d="m25.66 19.3c-.05-.04-.11-.08-.16-.11l-1.03-.6v-5.9c0-2.9-.86-5.14-2.55-6.64-1.98-1.77-4.59-2.02-5.81-1.99-1.29-.01-3.83.22-5.81 1.99-1.69 1.5-2.55 3.74-2.55 6.64v5.85l-1.13.54c-.09.04-.16.09-.23.15-.85.73-1.14 1.88-.74 2.93.38 1.03 1.3199 1.7 2.41 1.73l4.36.56c.21 1.98 1.77 3.54 3.67 3.54s3.47-1.56 3.68-3.55l4.24-.55c1.07-.03 2-.69 2.38-1.7.38-1.03.1-2.17-.73-2.89zm-9.57 6.69c-.72 0-1.34-.53-1.58-1.27l1.42.18c.04.01.09.01.13.01s.09 0 .13-.01l1.49-.19c-.25.75-.87 1.28-1.59 1.28zm8.42-4.5c-.04.12-.19.4-.57.4h-.13l-7.75 1.01-7.8-1.01h-.13c-.41 0-.56-.3-.61-.4301-.05-.12-.11-.4.1-.65l1.56-.74c.35-.16.57-.51.57-.9v-6.48c0-2.3.63-4.03 1.87-5.14 1.18-1.06 2.72-1.38 3.78-1.46h1.42c1.06.08 2.6.4 3.78 1.46 1.2401 1.11 1.87 2.84 1.87 5.14v6.48c0 .36.19.69.5.87l1.43.8201c.22.24.16.52.11.63z" fill="#728b69" style="fill: rgb(70, 75, 68);"></path><path d="m17.68 24.71c-.25.75-.87 1.28-1.59 1.28s-1.34-.53-1.58-1.27l1.42.18c.04.01.09.01.13.01s.09 0 .13-.01z" fill="#f8f4b1" style="fill: rgb(119, 119, 110);"></path><path d="m24.51 21.49c-.04.12-.19.4-.57.4h-.13l-7.75 1.01-7.8-1.01h-.13c-.41 0-.56-.3-.61-.4301-.05-.12-.11-.4.1-.65l1.56-.74c.35-.16.57-.51.57-.9v-6.48c0-2.3.63-4.03 1.87-5.14 1.18-1.06 2.72-1.38 3.78-1.46h1.42c1.06.08 2.6.4 3.78 1.46 1.2401 1.11 1.87 2.84 1.87 5.14v6.48c0 .36.19.69.5.87l1.43.8201c.22.24.16.52.11.63z" fill="#d1e5ae" style="fill: rgb(148, 150, 146);"></path></g></svg>